<?xml version="1.0" encoding="utf-8"?>
<!-- Svg Vector Icons : http://www.onlinewebfonts.com/icon -->
<!DOCTYPE svg PUBLIC "-//W3C//DTD SVG 1.1//EN" "http://www.w3.org/Graphics/SVG/1.1/DTD/svg11.dtd">
<svg version="1.1" xmlns="http://www.w3.org/2000/svg" xmlns:xlink="http://www.w3.org/1999/xlink" x="0px" y="0px" viewBox="0 0 1000 1000" enable-background="new 0 0 1000 1000" xml:space="preserve">
<metadata> Svg Vector Icons : http://www.onlinewebfonts.com/icon </metadata>
<g><g transform="translate(0.000000,511.000000) scale(0.100000,-0.100000)"><path d="M5754.6,3701.3c-652.2-117.7-1245.6-487.9-1620.7-1010.2l-93.2-127.5h-186.3c-367.8-2.5-742.9-105.4-1039.6-284.4C2537.7,2110,2233.7,1781.4,2089,1497l-49-98.1l-220.7-31.9C961.1,1251.8,296.7,624.1,132.4-226.7c-174.1-912.1,370.2-1865.9,1245.6-2182.2c333.5-120.2,446.3-127.5,1892.9-127.5h1338.7v196.2v196.2H3256.1c-1530,0-1559.4,2.4-1907.6,174.1c-512.4,252.5-858.2,816.5-858.2,1395.2c0,875.3,765,1613.4,1618.3,1564.3l193.7-12.3l51.5,149.6c259.9,718.4,1012.6,1159.8,1743.3,1020c115.2-22.1,134.9-19.6,156.9,14.7c483,819,1184.3,1223.5,2035.1,1179.4c946.4-49,1716.3-674.3,1978.7-1603.6c39.2-147.1,53.9-262.4,53.9-490.4l2.4-301.6l154.5-51.5c203.5-68.6,485.5-259.9,642.4-434c237.8-267.3,392.3-671.8,392.3-1034.7c0-581.1-345.7-1140.1-858.2-1395.2c-348.2-171.6-377.6-174.1-1905.1-174.1H5394.2v-196.2v-196.2h1355.9c1029.8,2.4,1397.6,9.8,1537.4,34.3c845.9,154.5,1490.8,836.1,1598.7,1696.7c51.5,407-41.7,860.6-252.5,1218.6c-171.6,291.8-500.2,598.3-796.9,747.8l-100.5,51.5l-17.2,179c-46.6,456-196.2,887.6-438.9,1245.6c-110.3,161.8-448.7,505.1-617.9,625.2C7117.9,3649.8,6392.1,3816.5,5754.6,3701.3z"/><path d="M4290.8-219.3L3592-918.1l142.2-139.8l139.8-142.2l465.9,465.9l465.9,465.9V-1894v-1623.2h196.2H5198V-1894v1625.6l465.9-465.9l465.9-465.9l139.8,142.2l142.2,139.8l-698.8,698.8c-385,384.9-703.7,698.8-711.1,698.8C4994.5,479.5,4675.8,165.6,4290.8-219.3z"/></g></g>
</svg>